# AST/ASF file generated using VICON BodyLanguage
# -----------------------------------------------
:version 1.10
:name VICON
:units
  mass 1.0
  length 0.45
  angle deg
:documentation
   .ast/.asf automatically generated from VICON data using
   VICON BodyBuilder and BodyLanguage model FoxedUp or BRILLIANT.MOD
:root
   order TX TY TZ RX RY RZ
   axis XYZ
   position 0 0 0  
   orientation 0 0 0 
:bonedata
  begin
     id 1 
     name lhipjoint
     direction 0.528046 -0.759594 0.379717 
     length 2.39752 
     axis 0 0 0  XYZ
  end
  begin
     id 2 
     name lfemur
     direction 0.34202 -0.939693 0  
     length 7.31175  
     axis 0 0 20  XYZ
    dof rx ry rz
    limits (-160.0 20.0)
           (-70.0 70.0)
           (-60.0 70.0)
  end
  begin
     id 3 
     name ltibia
     direction 0.34202 -0.939693 0   
     length 7.52482   
     axis 0 0 20   XYZ
    dof rx
    limits (-10.0 170.0)
  end
  begin
     id 4 
     name lfoot
     direction 0.0675379 -0.185559 0.980309   
     length 2.00961   
     axis -90 7.62852e-016 20   XYZ
    dof rx rz
    limits (-45.0 90.0)
           (-70.0 20.0)
  end
  begin
     id 5 
     name ltoes
     direction 1.5352e-011 -4.22286e-011 1   
     length 1.01383   
     axis -90 7.62852e-016 20   XYZ
    dof rx
    limits (-90.0 20.0)
  end
  begin
     id 6 
     name rhipjoint
     direction -0.510274 -0.769251 0.384544   
     length 2.36742  
     axis 0 0 0  XYZ 
  end
  begin
     id 7 
     name rfemur
     direction -0.34202 -0.939693 0   
     length 7.45325   
     axis 0 0 -20   XYZ
    dof rx ry rz
    limits (-160.0 20.0)
           (-70.0 70.0)
           (-70.0 60.0)
  end
  begin
     id 8 
     name rtibia
     direction -0.34202 -0.939693 0   
     length 7.49587   
     axis 0 0 -20   XYZ
    dof rx
    limits (-10.0 170.0)
 end
 begin
     id 9 
     name rfoot
     direction -0.106475 -0.292536 0.950308   
     length 2.20898  
     axis -90 -7.62852e-016 -20   XYZ
    dof rx rz
    limits (-45.0 90.0)
           (-20.0 70.0)
  end
  begin
     id 10 
     name rtoes
     direction -1.53597e-011 -4.22023e-011 1   
     length 1.10065   
     axis -90 -7.62852e-016 -20   XYZ
    dof rx
    limits (-90.0 20.0)
  end
  begin
     id 11 
     name lowerback
     direction 0.0260024 0.998026 -0.0571652   
     length 2.11214   
     axis 0 0 0   XYZ
    dof rx ry rz
    limits (-20.0 45.0)
           (-30.0 30.0)
           (-30.0 30.0)
  end
  begin
     id 12 
     name upperback
     direction 0.0216202 0.999542 -0.0211766   
     length 2.11689   
     axis 0 0 0   XYZ
    dof rx ry rz
    limits (-20.0 45.0)
           (-30.0 30.0)
           (-30.0 30.0)
  end
  begin
     id 13 
     name thorax
     direction 0.00883312 0.999944 0.00589057   
     length 2.11821   
     axis 0 0 0   XYZ
    dof rx ry rz
    limits (-20.0 45.0)
           (-30.0 30.0)
           (-30.0 30.0)
  end
  begin
     id 14 
     name lowerneck
     direction -0.059386 0.994433 0.0870401   
     length 1.81176   
     axis 0 0 0   XYZ
    dof rx ry rz
    limits (-20.0 45.0)
           (-30.0 30.0)
           (-30.0 30.0)
  end
  begin
     id 15 
     name upperneck
     direction 0.0506457 0.97328 -0.223967   
     length 1.82382   
     axis 0 0 0   XYZ
    dof rx ry rz
    limits (-20.0 45.0)
           (-30.0 30.0)
           (-30.0 30.0)
  end
  begin
     id 16
     name head
     direction 0.0205902 0.996147 -0.0852487  
     length 1.84805  
     axis 0 0 0   XYZ
    dof rx ry rz
    limits (-20.0 45.0)
           (-30.0 30.0)
           (-30.0 30.0)
  end
  begin
     id 17 
     name lclavicle
     direction 0.949493 0.303881 -0.0782325  
     length 3.60584  
     axis 0 0 0   XYZ
    dof ry rz
    limits (-20.0 10.0)
           (0.0 20.0)
  end
  begin
     id 18 
     name lhumerus
     direction 1 -4.48965e-011 1.48782e-027   
     length 4.95681   
     axis 180 -30 -90   XYZ
    dof rx ry rz
    limits (-60.0 90.0)
           (-90.0 90.0)
           (-90.0 90.0)
  end
  begin
     id 19
     name lradius
     direction 1 -4.48952e-011 2.06528e-027   
     length 3.40915   
     axis 180 -30 -90   XYZ
    dof rx
    limits (-10.0 170.0)
  end
  begin
     id 20
     name lwrist
     direction 1 -4.48964e-011 1.28021e-027   
     length 1.70457   
     axis -1.61767e-015 90 90   XYZ
    dof ry
    limits (-180.0 0.0)
 end
  begin
     id 21 
     name lhand
     direction 1 -4.49094e-011 2.54887e-027   
     length 0.616403   
     axis -1.63363e-015 90 90   XYZ
    dof rx rz
    limits (-90.0 90.0)
           (-45.0 45.0)
  end
  begin
     id 22 
     name lfingers
     direction 1 -4.49002e-011 5.11407e-027   
     length 0.49696   
     axis -3.26723e-015 90 90   XYZ
    dof rx
    limits (0.0 90.0)
  end
  begin
     id 23
     name lthumb
     direction 0.707107 -6.34998e-011 0.707107   
     length 0.713539   
     axis -90 45 -2.25915e-014   XYZ
    dof rx rz
    limits (-45.0 45.0)
           (-45.0 45.0)
  end
  begin
     id 24 
     name rclavicle
     direction -0.937751 0.334612 -0.0930482   
     length 3.46287  
     axis 0 0 0   XYZ 
    dof ry rz
    limits (-10.0 20.0)
           (-20.0 0.0)
  end
  begin
     id 25 
     name rhumerus
     direction -1 -4.48962e-011 3.59972e-027  
     length 5.352   
     axis 180 30 90   XYZ
    dof rx ry rz
    limits (-90.0 60.0)
           (-90.0 90.0)
           (-90.0 90.0)
  end
  begin
     id 26 
     name rradius
     direction -1 -4.48987e-011 -3.76925e-027   
     length 3.43721   
     axis 180 30 90   XYZ
    dof rx
    limits (-10.0 170.0)
  end
  begin
     id 27 
     name rwrist
     direction -1 -4.48943e-011 1.28112e-027   
     length 1.7186   
     axis -1.61767e-015 -90 -90   XYZ
    dof ry
    limits (-180.0 0.0)
  end
  begin
     id 28
     name rhand
     direction -1 -4.49027e-011 2.55483e-027   
     length 0.72009   
     axis -1.63363e-015 -90 -90   XYZ
    dof rx rz
    limits (-90.0 90.0)
           (-45.0 45.0)
  end
  begin
     id 29
     name rfingers
     direction -1 -4.48827e-011 5.14506e-027   
     length 0.580555   
     axis -3.26723e-015 -90 -90   XYZ
    dof rx
    limits (0.0 90.0)
  end
  begin
     id 30
     name rthumb
     direction -0.707107 -6.34936e-011 0.707107   
     length 0.833564   
     axis -90 -45 2.25915e-014   XYZ
    dof rx rz
    limits (-45.0 45.0)
           (-45.0 45.0)
  end
:hierarchy
  begin
    root lhipjoint rhipjoint lowerback
    lhipjoint lfemur
    lfemur ltibia
    ltibia lfoot
    lfoot ltoes
    rhipjoint rfemur
    rfemur rtibia
    rtibia rfoot
    rfoot rtoes
    lowerback upperback
    upperback thorax
    thorax lowerneck lclavicle rclavicle
    lowerneck upperneck
    upperneck head
    lclavicle lhumerus
    lhumerus lradius
    lradius lwrist
    lwrist lhand lthumb
    lhand lfingers
    rclavicle rhumerus
    rhumerus rradius
    rradius rwrist
    rwrist rhand rthumb
    rhand rfingers
  end

#!OML:ASF H:\Terrain\Patient Classification 1\Terrain2\Thursday\justin.ASF
:FULLY-SPECIFIED
:DEGREES
550
root -12.2505 17.2713 -2.1639 540.167 1.54648 -528.685
lowerback 4.46827 1.21733 8.14168
upperback 1.95278 2.50136 4.83841
thorax -0.382498 1.48506 0.327064
lowerneck -10.4436 -1.58047 -11.2588
upperneck 38.4679 -8.82619 8.60933
head 16.3865 -6.04464 3.81611
rclavicle 1.76918e-014 8.90555e-014
rhumerus -26.7643 -6.77836 -78.005
rradius 38.2623
rwrist -16.2835
rhand -20.6615 11.0849
rfingers 7.12502
rthumb 5.70114 -18.8184
lclavicle 1.76918e-014 8.90555e-014
lhumerus -34.2533 1.47638 88.2948
lradius 40.1753
lwrist 6.34461
lhand -13.1808 24.9142
lfingers 7.12502
lthumb 12.9189 54.4943
rfemur 5.18978 0.697967 34.9167
rtibia 20.0239
rfoot -17.6485 2.09975
rtoes 11.6151
lfemur -29.616 -4.12317 -2.3853
ltibia 29.6382
lfoot -6.95633 -10.6902
ltoes -18.9712
551
root -12.261 17.2567 -2.28102 540.208 1.83338 -528.87
lowerback 4.29309 1.1821 7.82856
upperback 2.01905 2.40262 4.81042
thorax -0.231621 1.43478 0.481726
lowerneck -10.5577 -1.44249 -11.2638
upperneck 38.5429 -8.6201 8.6156
head 16.4214 -5.96486 3.85454
rclavicle 1.39646e-014 3.29983e-014
rhumerus -26.6095 -6.39114 -78.2242
rradius 38.4758
rwrist -16.2325
rhand -20.7227 10.9994
rfingers 7.12502
rthumb 5.64209 -18.9055
lclavicle 1.39646e-014 3.29983e-014
lhumerus -34.4315 1.61069 88.2781
lradius 39.9587
lwrist 6.5066
lhand -15.0019 23.0793
lfingers 7.12502
lthumb 11.163 52.7624
rfemur 5.63951 1.13201 34.7365
rtibia 19.9864
rfoot -17.7261 1.93985
rtoes 11.1837
lfemur -29.4517 -4.62867 -2.2528
ltibia 27.6145
lfoot -7.09685 -11.6078
ltoes -19.4955
552
root -12.2741 17.2467 -2.39369 540.388 1.94349 -528.783
lowerback 4.18745 1.13502 7.87294
upperback 1.93144 2.33471 4.83658
thorax -0.265967 1.39774 0.4884
lowerneck -10.6619 -1.34906 -11.1524
upperneck 38.6969 -8.50172 8.49503
head 16.4964 -5.92755 3.79917
rclavicle -3.8266e-015 1.07344e-014
rhumerus -26.6932 -6.25057 -78.2971
rradius 38.6542
rwrist -16.121
rhand -20.6129 11.3307
rfingers 7.12502
rthumb 5.74809 -18.5713
lclavicle -3.8266e-015 1.07344e-014
lhumerus -34.7062 1.70095 88.3421
lradius 39.7264
lwrist 6.6253
lhand -14.6445 22.2511
lfingers 7.12502
lthumb 11.5076 51.9152
rfemur 5.86474 1.36645 34.8326
rtibia 20.0415
rfoot -17.903 1.78696
rtoes 10.9958
lfemur -29.612 -4.89315 -1.88271
ltibia 25.79
lfoot -6.17248 -12.9306
ltoes -12.905
553
root -12.2915 17.2212 -2.50516 540.675 2.19325 -528.28
lowerback 4.00203 1.21759 8.52817
upperback 1.92007 2.46932 4.89352
thorax -0.143586 1.48049 0.189749
lowerneck -10.848 -1.44056 -11.2958
upperneck 38.7059 -8.63187 8.64058
head 16.5872 -5.97361 3.86578
rclavicle -1.97791e-014 -1.27222e-014
rhumerus -26.5995 -6.16944 -78.3137
rradius 38.7563
rwrist -16.316
rhand -20.6536 11.4288
rfingers 7.12502
rthumb 5.70876 -18.4743
lclavicle -1.97791e-014 -1.27222e-014
lhumerus -34.6099 1.55603 88.4838
lradius 39.292
lwrist 6.46744
lhand -15.8262 23.1283
lfingers 7.12502
lthumb 10.3678 52.8527
rfemur 6.01905 1.643 35.3133
rtibia 20.0282
rfoot -18.0062 1.90497
rtoes 11.5897
lfemur -29.9469 -4.82274 -1.13282
ltibia 24.2575
lfoot -4.92862 -14.1223
ltoes -5.61167
554
root -12.308 17.2016 -2.62128 540.907 2.53558 -528.157
lowerback 3.73708 1.30292 8.6622
upperback 1.91716 2.55439 4.90267
thorax 0.0124056 1.52844 0.133167
lowerneck -11.1375 -1.40185 -11.3042
upperneck 38.9404 -8.57879 8.58996
head 16.7763 -5.96559 3.85158
rclavicle -3.7123e-014 -6.48038e-014
rhumerus -26.6291 -5.85289 -78.3926
rradius 39.0928
rwrist -16.7185
rhand -20.8732 10.9651
rfingers 7.12502
rthumb 5.4968 -18.9436
lclavicle -3.7123e-014 -6.48038e-014
lhumerus -34.6403 1.84417 88.4302
lradius 39.014
lwrist 5.41212
lhand -14.5685 25.1435
lfingers 7.12502
lthumb 11.5809 54.8036
rfemur 6.33021 1.69334 35.3138
rtibia 19.8863
rfoot -18.0703 2.07114
rtoes 10.1513
lfemur -30.231 -4.78037 -0.80969
ltibia 23.1223
lfoot -4.06229 -15.2249
ltoes -2.52331
555
root -12.3219 17.2047 -2.73453 540.999 2.77287 -528.53
lowerback 3.67933 1.32127 8.16952
upperback 1.80229 2.53309 4.81828
thorax -0.091514 1.49648 0.3151
lowerneck -11.1353 -1.24802 -11.1088
upperneck 39.0846 -8.36001 8.37219
head 16.793 -5.89207 3.75583
rclavicle 1.51573e-014 3.61788e-014
rhumerus -26.8108 -5.76792 -78.5785
rradius 39.2637
rwrist -16.9521
rhand -21.1406 11.044
rfingers 7.12502
rthumb 5.2386 -18.8713
lclavicle 1.51573e-014 3.61788e-014
lhumerus -34.9019 2.40064 88.1798
lradius 38.6287
lwrist 4.0561
lhand -10.7308 28.8414
lfingers 7.12502
lthumb 15.2798 58.257
rfemur 6.7677 1.77131 34.8353
rtibia 19.747
rfoot -18.1989 1.91195
rtoes 8.35333
lfemur -30.4652 -4.37678 -1.28639
ltibia 22.3426
lfoot -4.39612 -16.6734
ltoes -4.91318
556
root -12.3354 17.1978 -2.84555 541.053 3.00425 -528.643
lowerback 3.70604 1.29693 7.98813
upperback 1.76754 2.48817 4.77958
thorax -0.150244 1.46576 0.373954
lowerneck -10.9689 -1.15631 -11.1601
upperneck 38.9241 -8.20316 8.43888
head 16.6441 -5.82573 3.82404
rclavicle -5.41688e-015 3.49861e-014
rhumerus -26.8114 -5.79805 -78.7939
rradius 39.2757
rwrist -16.965
rhand -21.2968 11.297
rfingers 7.12502
rthumb 5.08775 -18.6219
lclavicle -5.41688e-015 3.49861e-014
lhumerus -34.932 2.85427 87.9957
lradius 37.8049
lwrist 3.62522
lhand -12.4807 26.9489
lfingers 7.12502
lthumb 13.5937 56.4851
rfemur 7.19508 2.12954 34.7173
rtibia 19.7269
rfoot -18.268 1.69468
rtoes 7.91192
lfemur -30.6259 -3.49608 -1.69143
ltibia 21.7196
lfoot -5.98806 -18.1096
ltoes -8.50141
557
root -12.353 17.1743 -2.9614 541.256 3.2382 -528.652
lowerback 3.53403 1.28672 7.96572
upperback 1.71843 2.44866 4.75626
thorax -0.10623 1.44276 0.368341
lowerneck -10.8989 -1.05155 -11.3345
upperneck 38.9165 -8.13767 8.69258
head 16.6347 -5.80933 3.98193
rclavicle 5.11871e-015 8.62725e-014
rhumerus -26.9622 -5.80156 -78.9388
rradius 39.5731
rwrist -16.8808
rhand -21.2061 10.9204
rfingers 7.12502
rthumb 5.17534 -18.9964
lclavicle 5.11871e-015 8.62725e-014
lhumerus -35.0409 3.03475 88.0158
lradius 37.1475
lwrist 3.99492
lhand -12.7225 26.7833
lfingers 7.12502
lthumb 13.3607 56.3349
rfemur 7.43098 2.36165 34.6312
rtibia 19.7933
rfoot -18.2089 1.79945
rtoes 7.19335
lfemur -30.8469 -3.0265 -1.78125
ltibia 21.2597
lfoot -4.02969 -18.5225
ltoes -0.42836
558
root -12.3779 17.1492 -3.07663 541.52 3.35094 -528.662
lowerback 3.29342 1.29694 8.09204
upperback 1.56963 2.4319 4.66206
thorax -0.116318 1.42494 0.207139
lowerneck -10.994 -0.927821 -11.2675
upperneck 39.204 -8.19035 8.88236
head 16.8307 -5.83959 4.04549
rclavicle 3.29983e-014 7.23576e-014
rhumerus -27.3388 -6.03995 -79.0617
rradius 39.7783
rwrist -16.7068
rhand -21.0759 11.2435
rfingers 7.12502
rthumb 5.30102 -18.6702
lclavicle 3.29983e-014 7.23576e-014
lhumerus -35.3266 2.67304 88.1427
lradius 36.784
lwrist 4.2874
lhand -11.2146 31.0035
lfingers 7.12502
lthumb 14.8138 60.454
rfemur 7.51943 2.57574 34.499
rtibia 19.913
rfoot -18.244 1.97102
rtoes 7.34464
lfemur -31.1581 -3.2404 -1.64814
ltibia 21.0319
lfoot -3.04783 -18.3375
ltoes 2.99532
